<svg version="1.1" xmlns="http://www.w3.org/2000/svg" width="16" height="16" viewBox="0 0 950 1024">
<g id="icomoon-ignore">
</g>
<path d="M72.704 951.296h164.864v-164.864h-164.864v164.864zM274.432 951.296h182.272v-164.864h-182.272v164.864zM72.704 749.568h164.864v-182.272h-164.864v182.272zM274.432 749.568h182.272v-182.272h-182.272v182.272zM72.704 530.432h164.864v-164.864h-164.864v164.864zM493.568 951.296h183.296v-164.864h-183.296v164.864zM274.432 530.432h182.272v-164.864h-182.272v164.864zM712.704 951.296h164.864v-164.864h-164.864v164.864zM493.568 749.568h183.296v-182.272h-183.296v182.272zM292.864 256v-164.864q0-7.168-6.144-12.288t-12.288-6.144h-36.864q-7.168 0-12.288 6.144t-6.144 12.288v164.864q0 7.168 6.144 13.312t12.288 5.12h36.864q7.168 0 12.288-5.12t6.144-13.312zM712.704 749.568h164.864v-182.272h-164.864v182.272zM493.568 530.432h183.296v-164.864h-183.296v164.864zM712.704 530.432h164.864v-164.864h-164.864v164.864zM731.136 256v-164.864q0-7.168-5.12-12.288t-13.312-6.144h-35.84q-7.168 0-13.312 6.144t-5.12 12.288v164.864q0 7.168 5.12 13.312t13.312 5.12h35.84q8.192 0 13.312-5.12t5.12-13.312zM951.296 219.136v732.16q0 29.696-22.528 51.2t-51.2 21.504h-804.864q-29.696 0-51.2-21.504t-21.504-51.2v-732.16q0-29.696 21.504-51.2t51.2-21.504h73.728v-55.296q0-37.888 26.624-64.512t64.512-26.624h36.864q37.888 0 64.512 26.624t26.624 64.512v55.296h219.136v-55.296q0-37.888 27.648-64.512t64.512-26.624h35.84q37.888 0 65.536 26.624t26.624 64.512v55.296h72.704q29.696 0 51.2 21.504t22.528 51.2z"></path>
</svg>
