<svg version="1.1" xmlns="http://www.w3.org/2000/svg" width="16" height="16" viewBox="0 0 878 990">
<g id="icomoon-ignore">
</g>
<path d="M512 311.296v256q0 7.168-5.12 12.288t-13.312 5.12h-182.272q-8.192 0-13.312-5.12t-5.12-12.288v-36.864q0-8.192 5.12-13.312t13.312-5.12h128v-200.704q0-8.192 5.12-13.312t12.288-5.12h36.864q8.192 0 13.312 5.12t5.12 13.312zM749.568 512q0-84.992-41.984-155.648t-112.64-113.664-155.648-41.984-156.672 41.984-112.64 113.664-41.984 155.648 41.984 155.648 112.64 113.664 156.672 41.984 155.648-41.984 112.64-113.664 41.984-155.648zM877.568 512q0 119.808-58.368 220.16t-159.744 159.744-220.16 59.392-221.184-59.392-158.72-159.744-59.392-220.16 59.392-220.16 158.72-159.744 221.184-59.392 220.16 59.392 159.744 159.744 58.368 220.16z"></path>
</svg>
