<?xml version="1.0" encoding="UTF-8"?>
<svg width="16px" height="12px" viewBox="0 0 16 12" version="1.1" xmlns="http://www.w3.org/2000/svg" xmlns:xlink="http://www.w3.org/1999/xlink">
    <g id="Symbols" stroke="none" stroke-width="1" fill="none" fill-rule="evenodd">
        <g id="User-login" transform="translate(-103.000000, -3.000000)" fill="#FFFFFF" fill-rule="nonzero">
            <g id="Group">
                <path d="M118.77856,9.53082988 L113.444963,14.779958 C112.968748,15.2486302 112.143311,14.9205597 112.143311,14.2487962 L112.143311,11.2492944 L107.825636,11.2492944 C107.403393,11.2492944 107.063694,10.914975 107.063694,10.499419 L107.063694,7.49991721 C107.063694,7.08436124 107.403393,6.75004177 107.825636,6.75004177 L112.143311,6.75004177 L112.143311,3.75053998 C112.143311,3.08190104 112.965574,2.75070605 113.444963,3.21937821 L118.77856,8.46850633 C119.073813,8.76220755 119.073813,9.23712866 118.77856,9.53082988 Z M109.09554,14.623734 L109.09554,13.3739415 C109.09554,13.1677258 108.924103,12.9990038 108.714569,12.9990038 L106.04777,12.9990038 C105.485838,12.9990038 105.031847,12.552203 105.031847,11.9991699 L105.031847,6.00016632 C105.031847,5.44713318 105.485838,5.00033239 106.04777,5.00033239 L108.714569,5.00033239 C108.924103,5.00033239 109.09554,4.83161042 109.09554,4.62539467 L109.09554,3.37560226 C109.09554,3.16938651 108.924103,3.00066454 108.714569,3.00066454 L106.04777,3.00066454 C104.365147,3.00066454 103,4.34419138 103,6.00016632 L103,11.9991699 C103,13.6551448 104.365147,14.9986717 106.04777,14.9986717 L108.714569,14.9986717 C108.924103,14.9986717 109.09554,14.8299497 109.09554,14.623734 Z" id="ic_exit"></path>
            </g>
        </g>
    </g>
</svg>
