<?xml version="1.0" encoding="UTF-8"?>
<svg width="10px" height="12px" viewBox="0 0 10 12" version="1.1" xmlns="http://www.w3.org/2000/svg" xmlns:xlink="http://www.w3.org/1999/xlink">
    <g stroke="none" stroke-width="1" fill="none" fill-rule="evenodd">
        <g transform="translate(0.000000, -3.000000)" fill="#FFFFFF">
            <g id="Group">
                <path d="M10,12.9296875 C10,13.4973987 9.83724121,13.984373 9.51171875,14.390625 C9.18619629,14.796877 8.79427313,15 8.3359375,15 L1.6640625,15 C1.20572687,15 0.813803711,14.796877 0.48828125,14.390625 C0.162758789,13.984373 0,13.4973987 0,12.9296875 C0,12.486977 0.0221351953,12.0690124 0.06640625,11.6757812 C0.110677305,11.2825501 0.192707734,10.8867207 0.3125,10.4882812 C0.432292266,10.0898418 0.584634492,9.74869934 0.76953125,9.46484375 C0.954428008,9.18098816 1.19921723,8.94921965 1.50390625,8.76953125 C1.80859527,8.58984285 2.15885219,8.5 2.5546875,8.5 C3.23698258,9.16667 4.05207859,9.5 5,9.5 C5.94792141,9.5 6.76301742,9.16667 7.4453125,8.5 C7.84114781,8.5 8.19140473,8.58984285 8.49609375,8.76953125 C8.80078277,8.94921965 9.04557199,9.18098816 9.23046875,9.46484375 C9.41536551,9.74869934 9.56770773,10.0898418 9.6875,10.4882812 C9.80729227,10.8867207 9.8893227,11.2825501 9.93359375,11.6757812 C9.9778648,12.0690124 10,12.486977 10,12.9296875 Z M7.1171875,3.8828125 C7.70573211,4.46614875 8,5.17187086 8,6 C8,6.82812914 7.70703418,7.53515332 7.12109375,8.12109375 C6.53515332,8.70703418 5.82812914,9 5,9 C4.17187086,9 3.46484668,8.70703418 2.87890625,8.12109375 C2.29296582,7.53515332 2,6.82812914 2,6 C2,5.17187086 2.29296582,4.46484668 2.87890625,3.87890625 C3.46484668,3.29296582 4.17187086,3 5,3 C5.82812914,3 6.53385125,3.29426789 7.1171875,3.8828125 Z" id="ic_user"></path>
            </g>
        </g>
    </g>
</svg>
