<?xml version="1.0" encoding="UTF-8" standalone="no"?><svg xmlns="http://www.w3.org/2000/svg" xmlns:xlink="http://www.w3.org/1999/xlink"><symbol id="calendar" version="1.1" xmlns="http://www.w3.org/2000/svg" width="16" height="16" viewBox="0 0 950 1024"><path d="M72.704 951.296h164.864v-164.864h-164.864v164.864zM274.432 951.296h182.272v-164.864h-182.272v164.864zM72.704 749.568h164.864v-182.272h-164.864v182.272zM274.432 749.568h182.272v-182.272h-182.272v182.272zM72.704 530.432h164.864v-164.864h-164.864v164.864zM493.568 951.296h183.296v-164.864h-183.296v164.864zM274.432 530.432h182.272v-164.864h-182.272v164.864zM712.704 951.296h164.864v-164.864h-164.864v164.864zM493.568 749.568h183.296v-182.272h-183.296v182.272zM292.864 256v-164.864q0-7.168-6.144-12.288t-12.288-6.144h-36.864q-7.168 0-12.288 6.144t-6.144 12.288v164.864q0 7.168 6.144 13.312t12.288 5.12h36.864q7.168 0 12.288-5.12t6.144-13.312zM712.704 749.568h164.864v-182.272h-164.864v182.272zM493.568 530.432h183.296v-164.864h-183.296v164.864zM712.704 530.432h164.864v-164.864h-164.864v164.864zM731.136 256v-164.864q0-7.168-5.12-12.288t-13.312-6.144h-35.84q-7.168 0-13.312 6.144t-5.12 12.288v164.864q0 7.168 5.12 13.312t13.312 5.12h35.84q8.192 0 13.312-5.12t5.12-13.312zM951.296 219.136v732.16q0 29.696-22.528 51.2t-51.2 21.504h-804.864q-29.696 0-51.2-21.504t-21.504-51.2v-732.16q0-29.696 21.504-51.2t51.2-21.504h73.728v-55.296q0-37.888 26.624-64.512t64.512-26.624h36.864q37.888 0 64.512 26.624t26.624 64.512v55.296h219.136v-55.296q0-37.888 27.648-64.512t64.512-26.624h35.84q37.888 0 65.536 26.624t26.624 64.512v55.296h72.704q29.696 0 51.2 21.504t22.528 51.2z"></path></symbol><symbol id="exit" width="16px" height="12px" viewBox="0 0 16 12" version="1.1" xmlns="http://www.w3.org/2000/svg" xmlns:xlink="http://www.w3.org/1999/xlink"><g stroke-width="1" fill-rule="evenodd"><g transform="translate(-103.000000, -3.000000)" fill-rule="nonzero"><g><path d="M118.77856,9.53082988 L113.444963,14.779958 C112.968748,15.2486302 112.143311,14.9205597 112.143311,14.2487962 L112.143311,11.2492944 L107.825636,11.2492944 C107.403393,11.2492944 107.063694,10.914975 107.063694,10.499419 L107.063694,7.49991721 C107.063694,7.08436124 107.403393,6.75004177 107.825636,6.75004177 L112.143311,6.75004177 L112.143311,3.75053998 C112.143311,3.08190104 112.965574,2.75070605 113.444963,3.21937821 L118.77856,8.46850633 C119.073813,8.76220755 119.073813,9.23712866 118.77856,9.53082988 Z M109.09554,14.623734 L109.09554,13.3739415 C109.09554,13.1677258 108.924103,12.9990038 108.714569,12.9990038 L106.04777,12.9990038 C105.485838,12.9990038 105.031847,12.552203 105.031847,11.9991699 L105.031847,6.00016632 C105.031847,5.44713318 105.485838,5.00033239 106.04777,5.00033239 L108.714569,5.00033239 C108.924103,5.00033239 109.09554,4.83161042 109.09554,4.62539467 L109.09554,3.37560226 C109.09554,3.16938651 108.924103,3.00066454 108.714569,3.00066454 L106.04777,3.00066454 C104.365147,3.00066454 103,4.34419138 103,6.00016632 L103,11.9991699 C103,13.6551448 104.365147,14.9986717 106.04777,14.9986717 L108.714569,14.9986717 C108.924103,14.9986717 109.09554,14.8299497 109.09554,14.623734 Z"></path></g></g></g></symbol><symbol id="clock" version="1.1" xmlns="http://www.w3.org/2000/svg" width="16" height="16" viewBox="0 0 878 990"><path d="M512 311.296v256q0 7.168-5.12 12.288t-13.312 5.12h-182.272q-8.192 0-13.312-5.12t-5.12-12.288v-36.864q0-8.192 5.12-13.312t13.312-5.12h128v-200.704q0-8.192 5.12-13.312t12.288-5.12h36.864q8.192 0 13.312 5.12t5.12 13.312zM749.568 512q0-84.992-41.984-155.648t-112.64-113.664-155.648-41.984-156.672 41.984-112.64 113.664-41.984 155.648 41.984 155.648 112.64 113.664 156.672 41.984 155.648-41.984 112.64-113.664 41.984-155.648zM877.568 512q0 119.808-58.368 220.16t-159.744 159.744-220.16 59.392-221.184-59.392-158.72-159.744-59.392-220.16 59.392-220.16 158.72-159.744 221.184-59.392 220.16 59.392 159.744 159.744 58.368 220.16z"></path></symbol><symbol id="search" width="21px" height="21px" focusable="false" xmlns="http://www.w3.org/2000/svg" viewBox="0 0 512 512"><path d="M508.5 468.9L387.1 347.5c-2.3-2.3-5.3-3.5-8.5-3.5h-13.2c31.5-36.5 50.6-84 50.6-136C416 93.1 322.9 0 208 0S0 93.1 0 208s93.1 208 208 208c52 0 99.5-19.1 136-50.6v13.2c0 3.2 1.3 6.2 3.5 8.5l121.4 121.4c4.7 4.7 12.3 4.7 17 0l22.6-22.6c4.7-4.7 4.7-12.3 0-17zM208 368c-88.4 0-160-71.6-160-160S119.6 48 208 48s160 71.6 160 160-71.6 160-160 160z" class="0"></path></symbol><symbol id="plus" width="22px" height="22px" focusable="false" xmlns="http://www.w3.org/2000/svg" viewBox="0 0 384 512" class="svg-inline--fa fa-plus fa-w-12 fa-5x"><path d="M376 232H216V72c0-4.42-3.58-8-8-8h-32c-4.42 0-8 3.58-8 8v160H8c-4.42 0-8 3.58-8 8v32c0 4.42 3.58 8 8 8h160v160c0 4.42 3.58 8 8 8h32c4.42 0 8-3.58 8-8V280h160c4.42 0 8-3.58 8-8v-32c0-4.42-3.58-8-8-8z" class="0"></path></symbol><symbol id="star" aria-hidden="true" focusable="false" data-prefix="fas" data-icon="star" class="svg-inline--fa fa-star fa-w-18" role="img" xmlns="http://www.w3.org/2000/svg" viewBox="0 0 576 512"><path d="M259.3 17.8L194 150.2 47.9 171.5c-26.2 3.8-36.7 36.1-17.7 54.6l105.7 103-25 145.5c-4.5 26.3 23.2 46 46.4 33.7L288 439.6l130.7 68.7c23.2 12.2 50.9-7.4 46.4-33.7l-25-145.5 105.7-103c19-18.5 8.5-50.8-17.7-54.6L382 150.2 316.7 17.8c-11.7-23.6-45.6-23.9-57.4 0z"></path></symbol><symbol id="pen" width="13px" height="13px" focusable="false" xmlns="http://www.w3.org/2000/svg" viewBox="0 0 512 512"><path d="M290.74 93.24l128.02 128.02-277.99 277.99-114.14 12.6C11.35 513.54-1.56 500.62.14 485.34l12.7-114.22 277.9-277.88zm207.2-19.06l-60.11-60.11c-18.75-18.75-49.16-18.75-67.91 0l-56.55 56.55 128.02 128.02 56.55-56.55c18.75-18.76 18.75-49.16 0-67.91z"></path></symbol><symbol id="user" width="10px" height="12px" viewBox="0 0 10 12" version="1.1" xmlns="http://www.w3.org/2000/svg" xmlns:xlink="http://www.w3.org/1999/xlink"><g stroke-width="1" fill-rule="evenodd"><g transform="translate(0.000000, -3.000000)"><g><path d="M10,12.9296875 C10,13.4973987 9.83724121,13.984373 9.51171875,14.390625 C9.18619629,14.796877 8.79427313,15 8.3359375,15 L1.6640625,15 C1.20572687,15 0.813803711,14.796877 0.48828125,14.390625 C0.162758789,13.984373 0,13.4973987 0,12.9296875 C0,12.486977 0.0221351953,12.0690124 0.06640625,11.6757812 C0.110677305,11.2825501 0.192707734,10.8867207 0.3125,10.4882812 C0.432292266,10.0898418 0.584634492,9.74869934 0.76953125,9.46484375 C0.954428008,9.18098816 1.19921723,8.94921965 1.50390625,8.76953125 C1.80859527,8.58984285 2.15885219,8.5 2.5546875,8.5 C3.23698258,9.16667 4.05207859,9.5 5,9.5 C5.94792141,9.5 6.76301742,9.16667 7.4453125,8.5 C7.84114781,8.5 8.19140473,8.58984285 8.49609375,8.76953125 C8.80078277,8.94921965 9.04557199,9.18098816 9.23046875,9.46484375 C9.41536551,9.74869934 9.56770773,10.0898418 9.6875,10.4882812 C9.80729227,10.8867207 9.8893227,11.2825501 9.93359375,11.6757812 C9.9778648,12.0690124 10,12.486977 10,12.9296875 Z M7.1171875,3.8828125 C7.70573211,4.46614875 8,5.17187086 8,6 C8,6.82812914 7.70703418,7.53515332 7.12109375,8.12109375 C6.53515332,8.70703418 5.82812914,9 5,9 C4.17187086,9 3.46484668,8.70703418 2.87890625,8.12109375 C2.29296582,7.53515332 2,6.82812914 2,6 C2,5.17187086 2.29296582,4.46484668 2.87890625,3.87890625 C3.46484668,3.29296582 4.17187086,3 5,3 C5.82812914,3 6.53385125,3.29426789 7.1171875,3.8828125 Z"></path></g></g></g></symbol><symbol id="trash" width="10px" height="13px" focusable="false" xmlns="http://www.w3.org/2000/svg" viewBox="0 0 448 512"><path d="M432 32H312l-9.4-18.7A24 24 0 0 0 281.1 0H166.8a23.72 23.72 0 0 0-21.4 13.3L136 32H16A16 16 0 0 0 0 48v32a16 16 0 0 0 16 16h416a16 16 0 0 0 16-16V48a16 16 0 0 0-16-16zM53.2 467a48 48 0 0 0 47.9 45h245.8a48 48 0 0 0 47.9-45L416 128H32z"></path></symbol></svg>